<svg xmlns="http://www.w3.org/2000/svg" version="1.1" xmlns:xlink="http://www.w3.org/1999/xlink" xmlns:svgjs="http://svgjs.dev/svgjs" viewBox="0 0 16.322116182601214 3.515610295463996"><g transform="matrix(1,0,0,1,4.346398768447457,1.202805147731998)"><g><path d=" M 0.8835000000000001 0.7484999999999999 L 0.327 0.7484999999999999 Q 0.3315 0.8174999999999999 0.36525 0.8512499999999998 Q 0.399 0.8849999999999999 0.4515 0.8849999999999999 Q 0.525 0.8849999999999999 0.5565 0.819 L 0.87 0.819 Q 0.8505 0.9059999999999999 0.79425 0.9742499999999998 Q 0.738 1.0425 0.6525 1.0815 Q 0.5670000000000001 1.1204999999999998 0.4635 1.1204999999999998 Q 0.339 1.1204999999999998 0.24225 1.0679999999999998 Q 0.1455 1.0154999999999998 0.09075 0.9179999999999999 Q 0.036000000000000004 0.8204999999999999 0.036000000000000004 0.6884999999999999 Q 0.036000000000000004 0.5564999999999999 0.09 0.4597499999999999 Q 0.14400000000000002 0.3629999999999999 0.24075 0.3104999999999999 Q 0.3375 0.2579999999999999 0.4635 0.2579999999999999 Q 0.588 0.2579999999999999 0.684 0.30899999999999983 Q 0.78 0.3599999999999999 0.834 0.4552499999999998 Q 0.888 0.5504999999999999 0.888 0.6794999999999999 Q 0.888 0.7139999999999999 0.8835000000000001 0.7484999999999999 M 0.588 0.6059999999999999 Q 0.588 0.5519999999999998 0.552 0.5212499999999999 Q 0.516 0.4904999999999998 0.462 0.4904999999999998 Q 0.40800000000000003 0.4904999999999998 0.3735 0.5197499999999998 Q 0.339 0.5489999999999998 0.3285 0.6059999999999999 L 0.588 0.6059999999999999 M 2.355791748046875 0.3569999999999999 Q 2.446541748046875 0.45299999999999985 2.446541748046875 0.6194999999999999 L 2.446541748046875 1.1099999999999999 L 2.152541748046875 1.1099999999999999 L 2.152541748046875 0.6584999999999999 Q 2.152541748046875 0.5909999999999999 2.115041748046875 0.5534999999999999 Q 2.077541748046875 0.5159999999999999 2.013041748046875 0.5159999999999999 Q 1.948541748046875 0.5159999999999999 1.911041748046875 0.5534999999999999 Q 1.873541748046875 0.5909999999999999 1.873541748046875 0.6584999999999999 L 1.873541748046875 1.1099999999999999 L 1.579541748046875 1.1099999999999999 L 1.579541748046875 0.6584999999999999 Q 1.579541748046875 0.5909999999999999 1.542791748046875 0.5534999999999999 Q 1.5060417480468749 0.5159999999999999 1.441541748046875 0.5159999999999999 Q 1.375541748046875 0.5159999999999999 1.338041748046875 0.5534999999999999 Q 1.300541748046875 0.5909999999999999 1.300541748046875 0.6584999999999999 L 1.300541748046875 1.1099999999999999 L 1.006541748046875 1.1099999999999999 L 1.006541748046875 0.26849999999999985 L 1.300541748046875 0.26849999999999985 L 1.300541748046875 0.37949999999999984 Q 1.339541748046875 0.3254999999999999 1.401791748046875 0.2932499999999999 Q 1.464041748046875 0.2609999999999999 1.545041748046875 0.2609999999999999 Q 1.638041748046875 0.2609999999999999 1.710791748046875 0.3014999999999999 Q 1.783541748046875 0.34199999999999986 1.825541748046875 0.41549999999999987 Q 1.870541748046875 0.3464999999999998 1.944041748046875 0.30374999999999985 Q 2.0175417480468747 0.2609999999999999 2.106041748046875 0.2609999999999999 Q 2.265041748046875 0.2609999999999999 2.355791748046875 0.3569999999999999 M 2.997066650390625 0.29249999999999987 Q 3.060066650390625 0.2579999999999999 3.145566650390625 0.2579999999999999 Q 3.246066650390625 0.2579999999999999 3.327816650390625 0.3104999999999999 Q 3.409566650390625 0.3629999999999999 3.456816650390625 0.4604999999999999 Q 3.504066650390625 0.5579999999999998 3.504066650390625 0.6884999999999999 Q 3.504066650390625 0.819 3.456816650390625 0.9172499999999999 Q 3.409566650390625 1.0154999999999998 3.327816650390625 1.0679999999999998 Q 3.246066650390625 1.1204999999999998 3.145566650390625 1.1204999999999998 Q 3.060066650390625 1.1204999999999998 2.9978166503906247 1.0859999999999999 Q 2.935566650390625 1.0514999999999999 2.899566650390625 0.9929999999999999 L 2.899566650390625 1.512 L 2.605566650390625 1.512 L 2.605566650390625 0.26849999999999985 L 2.899566650390625 0.26849999999999985 L 2.899566650390625 0.38549999999999984 Q 2.934066650390625 0.32699999999999985 2.997066650390625 0.29249999999999987 M 3.161316650390625 0.5602499999999999 Q 3.117066650390625 0.5144999999999998 3.052566650390625 0.5144999999999998 Q 2.988066650390625 0.5144999999999998 2.943816650390625 0.5609999999999998 Q 2.899566650390625 0.6074999999999998 2.899566650390625 0.6884999999999999 Q 2.899566650390625 0.7709999999999999 2.943816650390625 0.8174999999999999 Q 2.988066650390625 0.8639999999999999 3.052566650390625 0.8639999999999999 Q 3.117066650390625 0.8639999999999999 3.161316650390625 0.8167499999999999 Q 3.205566650390625 0.7694999999999999 3.205566650390625 0.6884999999999999 Q 3.205566650390625 0.6059999999999999 3.161316650390625 0.5602499999999999 M 3.7898056640625 1.0679999999999998 Q 3.6900556640624997 1.0154999999999998 3.6330556640625 0.9179999999999999 Q 3.5760556640625 0.8204999999999999 3.5760556640625 0.6884999999999999 Q 3.5760556640625 0.5579999999999998 3.6338056640625 0.4604999999999999 Q 3.6915556640625 0.3629999999999999 3.7913056640625 0.3104999999999999 Q 3.8910556640625 0.2579999999999999 4.0170556640625 0.2579999999999999 Q 4.1430556640625 0.2579999999999999 4.2428056640625 0.3104999999999999 Q 4.3425556640625 0.3629999999999999 4.4003056640625 0.4604999999999999 Q 4.4580556640625 0.5579999999999998 4.4580556640625 0.6884999999999999 Q 4.4580556640625 0.819 4.4003056640625 0.9172499999999999 Q 4.3425556640625 1.0154999999999998 4.2420556640625 1.0679999999999998 Q 4.1415556640624995 1.1204999999999998 4.0155556640625 1.1204999999999998 Q 3.8895556640624998 1.1204999999999998 3.7898056640625 1.0679999999999998 M 4.1183056640624995 0.8197499999999999 Q 4.1595556640625 0.7739999999999998 4.1595556640625 0.6884999999999999 Q 4.1595556640625 0.6029999999999999 4.1183056640624995 0.5579999999999998 Q 4.0770556640625 0.5129999999999999 4.0170556640625 0.5129999999999999 Q 3.9570556640624996 0.5129999999999999 3.9165556640625 0.5579999999999998 Q 3.8760556640624997 0.6029999999999999 3.8760556640624997 0.6884999999999999 Q 3.8760556640624997 0.7754999999999999 3.9150556640625 0.8204999999999999 Q 3.9540556640625 0.8654999999999999 4.0155556640625 0.8654999999999999 Q 4.0770556640625 0.8654999999999999 4.1183056640624995 0.8197499999999999 M 5.82003515625 0.26849999999999985 L 5.605535156249999 1.1099999999999999 L 5.27553515625 1.1099999999999999 L 5.15853515625 0.5999999999999999 L 5.03703515625 1.1099999999999999 L 4.70853515625 1.1099999999999999 L 4.49553515625 0.26849999999999985 L 4.788035156249999 0.26849999999999985 L 4.8825351562499995 0.8264999999999998 L 5.00703515625 0.26849999999999985 L 5.32203515625 0.26849999999999985 L 5.45103515625 0.8279999999999998 L 5.54403515625 0.26849999999999985 L 5.82003515625 0.26849999999999985 M 6.7020498046874994 0.7484999999999999 L 6.1455498046875 0.7484999999999999 Q 6.1500498046875 0.8174999999999999 6.183799804687499 0.8512499999999998 Q 6.2175498046875 0.8849999999999999 6.2700498046875 0.8849999999999999 Q 6.3435498046875 0.8849999999999999 6.3750498046874995 0.819 L 6.6885498046875 0.819 Q 6.6690498046875 0.9059999999999999 6.6127998046875 0.9742499999999998 Q 6.556549804687499 1.0425 6.4710498046875 1.0815 Q 6.3855498046875 1.1204999999999998 6.2820498046874995 1.1204999999999998 Q 6.1575498046875 1.1204999999999998 6.0607998046875 1.0679999999999998 Q 5.9640498046875 1.0154999999999998 5.9092998046875 0.9179999999999999 Q 5.854549804687499 0.8204999999999999 5.854549804687499 0.6884999999999999 Q 5.854549804687499 0.5564999999999999 5.9085498046875 0.4597499999999999 Q 5.9625498046875 0.3629999999999999 6.0592998046875 0.3104999999999999 Q 6.1560498046875 0.2579999999999999 6.2820498046874995 0.2579999999999999 Q 6.4065498046875 0.2579999999999999 6.5025498046875 0.30899999999999983 Q 6.5985498046875 0.3599999999999999 6.652549804687499 0.4552499999999998 Q 6.7065498046875 0.5504999999999999 6.7065498046875 0.6794999999999999 Q 6.7065498046875 0.7139999999999999 6.7020498046874994 0.7484999999999999 M 6.4065498046875 0.6059999999999999 Q 6.4065498046875 0.5519999999999998 6.370549804687499 0.5212499999999999 Q 6.3345498046875 0.4904999999999998 6.2805498046874995 0.4904999999999998 Q 6.2265498046875 0.4904999999999998 6.1920498046875 0.5197499999999998 Q 6.1575498046875 0.5489999999999998 6.1470498046875 0.6059999999999999 L 6.4065498046875 0.6059999999999999 M 7.239091552734375 0.3029999999999998 Q 7.309591552734375 0.2609999999999999 7.390591552734374 0.2609999999999999 L 7.390591552734374 0.5744999999999999 L 7.308091552734375 0.5744999999999999 Q 7.212091552734375 0.5744999999999999 7.165591552734375 0.6119999999999999 Q 7.119091552734375 0.6494999999999999 7.119091552734375 0.7424999999999999 L 7.119091552734375 1.1099999999999999 L 6.825091552734374 1.1099999999999999 L 6.825091552734374 0.26849999999999985 L 7.119091552734375 0.26849999999999985 L 7.119091552734375 0.4169999999999998 Q 7.168591552734375 0.34499999999999986 7.239091552734375 0.3029999999999998 M 7.778342285156249 0.4604999999999999 Q 7.825592285156249 0.3629999999999999 7.90809228515625 0.3104999999999999 Q 7.990592285156249 0.2579999999999999 8.09109228515625 0.2579999999999999 Q 8.17209228515625 0.2579999999999999 8.235842285156249 0.29174999999999984 Q 8.29959228515625 0.3254999999999999 8.335592285156249 0.3839999999999999 L 8.335592285156249 -2.220446049250313e-16 L 8.63109228515625 -2.220446049250313e-16 L 8.63109228515625 1.1099999999999999 L 8.335592285156249 1.1099999999999999 L 8.335592285156249 0.9929999999999999 Q 8.30109228515625 1.0514999999999999 8.238092285156249 1.0859999999999999 Q 8.17509228515625 1.1204999999999998 8.08959228515625 1.1204999999999998 Q 7.989092285156249 1.1204999999999998 7.90734228515625 1.0679999999999998 Q 7.825592285156249 1.0154999999999998 7.778342285156249 0.9172499999999999 Q 7.731092285156249 0.819 7.731092285156249 0.6884999999999999 Q 7.731092285156249 0.5579999999999998 7.778342285156249 0.4604999999999999 M 8.292842285156249 0.5609999999999998 Q 8.24859228515625 0.5144999999999998 8.18409228515625 0.5144999999999998 Q 8.11809228515625 0.5144999999999998 8.07459228515625 0.5602499999999999 Q 8.03109228515625 0.6059999999999999 8.03109228515625 0.6884999999999999 Q 8.03109228515625 0.7694999999999999 8.07459228515625 0.8167499999999999 Q 8.11809228515625 0.8639999999999999 8.18409228515625 0.8639999999999999 Q 8.24859228515625 0.8639999999999999 8.292842285156249 0.8174999999999999 Q 8.337092285156249 0.7709999999999999 8.337092285156249 0.6884999999999999 Q 8.337092285156249 0.6074999999999998 8.292842285156249 0.5609999999999998 M 8.796831298828124 0.4604999999999999 Q 8.844081298828124 0.3629999999999999 8.925831298828124 0.3104999999999999 Q 9.007581298828125 0.2579999999999999 9.108081298828125 0.2579999999999999 Q 9.195081298828125 0.2579999999999999 9.258081298828124 0.29249999999999987 Q 9.321081298828124 0.32699999999999985 9.355581298828124 0.38549999999999984 L 9.355581298828124 0.26849999999999985 L 9.649581298828124 0.26849999999999985 L 9.649581298828124 1.1099999999999999 L 9.355581298828124 1.1099999999999999 L 9.355581298828124 0.9929999999999999 Q 9.321081298828124 1.0514999999999999 9.257331298828124 1.0859999999999999 Q 9.193581298828125 1.1204999999999998 9.108081298828125 1.1204999999999998 Q 9.007581298828125 1.1204999999999998 8.925831298828124 1.0679999999999998 Q 8.844081298828124 1.0154999999999998 8.796831298828124 0.9172499999999999 Q 8.749581298828124 0.819 8.749581298828124 0.6884999999999999 Q 8.749581298828124 0.5579999999999998 8.796831298828124 0.4604999999999999 M 9.311331298828124 0.5609999999999998 Q 9.267081298828124 0.5144999999999998 9.202581298828125 0.5144999999999998 Q 9.136581298828125 0.5144999999999998 9.093081298828125 0.5602499999999999 Q 9.049581298828125 0.6059999999999999 9.049581298828125 0.6884999999999999 Q 9.049581298828125 0.7694999999999999 9.093081298828125 0.8167499999999999 Q 9.136581298828125 0.8639999999999999 9.202581298828125 0.8639999999999999 Q 9.267081298828124 0.8639999999999999 9.311331298828124 0.8174999999999999 Q 9.355581298828124 0.7709999999999999 9.355581298828124 0.6884999999999999 Q 9.355581298828124 0.6074999999999998 9.311331298828124 0.5609999999999998 M 10.3125703125 0.8594999999999999 L 10.3125703125 1.1099999999999999 L 10.185070312499999 1.1099999999999999 Q 9.862570312499999 1.1099999999999999 9.862570312499999 0.7904999999999999 L 9.862570312499999 0.5129999999999999 L 9.759070312499999 0.5129999999999999 L 9.759070312499999 0.26849999999999985 L 9.862570312499999 0.26849999999999985 L 9.862570312499999 0.06449999999999978 L 10.1580703125 0.06449999999999978 L 10.1580703125 0.26849999999999985 L 10.3110703125 0.26849999999999985 L 10.3110703125 0.5129999999999999 L 10.1580703125 0.5129999999999999 L 10.1580703125 0.7949999999999999 Q 10.1580703125 0.8294999999999999 10.1738203125 0.8444999999999998 Q 10.189570312499999 0.8594999999999999 10.227070312499999 0.8594999999999999 L 10.3125703125 0.8594999999999999 M 10.445351074218749 0.4604999999999999 Q 10.492601074218749 0.3629999999999999 10.574351074218749 0.3104999999999999 Q 10.65610107421875 0.2579999999999999 10.75660107421875 0.2579999999999999 Q 10.84360107421875 0.2579999999999999 10.906601074218749 0.29249999999999987 Q 10.96960107421875 0.32699999999999985 11.004101074218749 0.38549999999999984 L 11.004101074218749 0.26849999999999985 L 11.29810107421875 0.26849999999999985 L 11.29810107421875 1.1099999999999999 L 11.004101074218749 1.1099999999999999 L 11.004101074218749 0.9929999999999999 Q 10.96960107421875 1.0514999999999999 10.905851074218749 1.0859999999999999 Q 10.84210107421875 1.1204999999999998 10.75660107421875 1.1204999999999998 Q 10.65610107421875 1.1204999999999998 10.574351074218749 1.0679999999999998 Q 10.492601074218749 1.0154999999999998 10.445351074218749 0.9172499999999999 Q 10.398101074218749 0.819 10.398101074218749 0.6884999999999999 Q 10.398101074218749 0.5579999999999998 10.445351074218749 0.4604999999999999 M 10.959851074218749 0.5609999999999998 Q 10.915601074218749 0.5144999999999998 10.85110107421875 0.5144999999999998 Q 10.78510107421875 0.5144999999999998 10.74160107421875 0.5602499999999999 Q 10.69810107421875 0.6059999999999999 10.69810107421875 0.6884999999999999 Q 10.69810107421875 0.7694999999999999 10.74160107421875 0.8167499999999999 Q 10.78510107421875 0.8639999999999999 10.85110107421875 0.8639999999999999 Q 10.915601074218749 0.8639999999999999 10.959851074218749 0.8174999999999999 Q 11.004101074218749 0.7709999999999999 11.004101074218749 0.6884999999999999 Q 11.004101074218749 0.6074999999999998 10.959851074218749 0.5609999999999998" fill="#404040" fill-rule="nonzero"></path></g><g></g><g clip-path="url(#SvgjsClipPath1003)"><g clip-path="url(#SvgjsClipPath10000aa93d50-9b0d-444b-b3a4-93d2efd75449)"><path d=" M -2.6179437624509188 0.5627578390135604 L -2.0764188021249494 0.021346283534750876 L -1.5350072466461397 0.5628712438607204 L -2.076532206972109 1.1042827993395297 Z" fill="#bab9b4" transform="matrix(1,0,0,1,0,0)" fill-rule="nonzero"></path></g><g clip-path="url(#SvgjsClipPath10000aa93d50-9b0d-444b-b3a4-93d2efd75449)"><path d=" M -2.3566683111118714 -0.24583449096970678 L -3.165277894226915 0.5627750921453367 L -2.371839222614968 1.3558344909697062 L -2.735182553114129 1.719177821468868 L -2.7423887360781 1.7123509112924744 L -3.528621224726076 0.9261184226444978 L -3.5506190464055662 0.9037413281774307 C -3.731911438867569 0.7229546327655307 -3.7913308422546974 0.5697284265842559 -3.72887725656695 0.4440627096336067 C -3.696094150975312 0.38043837000764347 -3.6528922372210526 0.3227503546087811 -3.601062327153363 0.2733899552237721 L -2.7200116416110327 -0.609177821468868 Z" fill="#404040" transform="matrix(1,0,0,1,0,0)" fill-rule="evenodd"></path></g><g clip-path="url(#SvgjsClipPath10000aa93d50-9b0d-444b-b3a4-93d2efd75449)"><path d=" M -1.7961031310724558 -0.24583449096970678 L -0.9874935479574121 0.5627750921453367 L -1.7805529467817816 1.3558344909697062 L -1.4172096162826207 1.719177821468868 L -1.4100034333186495 1.7123509112924744 L -0.6241502174582512 0.9261184226444978 L -0.6021523957787611 0.9037413281774307 C -0.4208600033167582 0.7229546327655307 -0.36144059992962907 0.5697284265842559 -0.4238941856173768 0.4440627096336067 C -0.45621870090075634 0.3805499568458328 -0.4989027608852403 0.3228687947046386 -0.5501920238806544 0.27338995522377096 L -1.4327598005732942 -0.609177821468868 Z" fill="#4e888f" transform="matrix(1,0,0,1,0,0)" fill-rule="evenodd"></path></g></g></g><defs><clipPath id="SvgjsClipPath1003"><path d=" M -3.752771442184327 -0.6091778214688681 h 3.352771442184327 v 2.328355642937736 h -3.352771442184327 Z"></path></clipPath><clipPath id="SvgjsClipPath10000aa93d50-9b0d-444b-b3a4-93d2efd75449"><path d=" M -3.752771442184327 -0.609177821468868 L -0.3999999999999999 -0.609177821468868 L -0.3999999999999999 1.719177821468868 L -3.752771442184327 1.719177821468868 Z"></path></clipPath></defs></svg>