<svg width="48" height="48" viewBox="0 0 48 48" fill="none" xmlns="http://www.w3.org/2000/svg">
<path fill-rule="evenodd" clip-rule="evenodd" d="M30.1714 48L30.1714 37.0286C32.6736 37.0286 37.0814 36.8207 37.0816 26.8042L37.0816 21.6L26.4 21.6L26.4 1.88833e-06L48 0L48 21.6L48 26.8042C48 34.6792 45.9621 40.5271 41.5095 44.1859C38.4295 46.7168 34.7805 48 30.1714 48ZM3.77143 48L3.77143 37.0286C6.27358 37.0286 10.6814 36.8207 10.6816 26.8042L10.6816 21.6L-2.30796e-06 21.6L-4.19629e-06 4.19629e-06L21.6 2.30796e-06L21.6 21.6L21.6 26.8042C21.6 34.6792 19.562 40.5271 15.1095 44.1859C12.0295 46.7168 8.38049 48 3.77143 48Z" fill="#161616"/>
</svg>
