<svg width="16" height="12" viewBox="0 0 16 12" fill="none" xmlns="http://www.w3.org/2000/svg">
<path id="Vector" d="M13.25 0.5H2.75C2.28602 0.500496 1.84119 0.68503 1.51311 1.01311C1.18503 1.34119 1.0005 1.78602 1 2.25V9.75C1.0005 10.214 1.18503 10.6588 1.51311 10.9869C1.84119 11.315 2.28602 11.4995 2.75 11.5H13.25C13.714 11.4995 14.1588 11.315 14.4869 10.9869C14.815 10.6588 14.9995 10.214 15 9.75V2.25C14.9995 1.78602 14.815 1.34119 14.4869 1.01311C14.1588 0.68503 13.714 0.500496 13.25 0.5ZM12.8069 3.39469L8.30688 6.89469C8.21912 6.9629 8.11115 6.99994 8 6.99994C7.88885 6.99994 7.78088 6.9629 7.69312 6.89469L3.19313 3.39469C3.14025 3.35476 3.09585 3.30472 3.06248 3.24749C3.02911 3.19025 3.00746 3.12695 2.99877 3.06127C2.99007 2.99559 2.99452 2.92884 3.01185 2.86489C3.02919 2.80094 3.05905 2.74108 3.09972 2.68878C3.14039 2.63647 3.19104 2.59277 3.24874 2.56021C3.30645 2.52766 3.37004 2.50689 3.43584 2.49913C3.50164 2.49136 3.56832 2.49675 3.63201 2.51498C3.69571 2.53321 3.75515 2.56391 3.80687 2.60531L8 5.86656L12.1931 2.60531C12.298 2.52613 12.4298 2.4914 12.56 2.50864C12.6903 2.52587 12.8085 2.59369 12.8892 2.69741C12.9698 2.80114 13.0064 2.93244 12.991 3.06293C12.9756 3.19341 12.9095 3.31259 12.8069 3.39469Z" fill="#161616" stroke="#F5F5F5" stroke-width="0.03125"/>
</svg>
