<svg width="568" height="132" viewBox="0 0 568 132" fill="none" xmlns="http://www.w3.org/2000/svg">
<path d="M192.8 94.56C188.907 94.56 185.387 93.8933 182.24 92.56C179.147 91.2267 176.693 89.3067 174.88 86.8C173.067 84.2933 172.133 81.3333 172.08 77.92H184.08C184.24 80.2133 185.04 82.0267 186.48 83.36C187.973 84.6933 190 85.36 192.56 85.36C195.173 85.36 197.227 84.7467 198.72 83.52C200.213 82.24 200.96 80.5867 200.96 78.56C200.96 76.9067 200.453 75.5467 199.44 74.48C198.427 73.4133 197.147 72.5867 195.6 72C194.107 71.36 192.027 70.6667 189.36 69.92C185.733 68.8533 182.773 67.8133 180.48 66.8C178.24 65.7333 176.293 64.16 174.64 62.08C173.04 59.9467 172.24 57.12 172.24 53.6C172.24 50.2933 173.067 47.4133 174.72 44.96C176.373 42.5067 178.693 40.64 181.68 39.36C184.667 38.0267 188.08 37.36 191.92 37.36C197.68 37.36 202.347 38.7733 205.92 41.6C209.547 44.3733 211.547 48.2667 211.92 53.28H199.6C199.493 51.36 198.667 49.7867 197.12 48.56C195.627 47.28 193.627 46.64 191.12 46.64C188.933 46.64 187.173 47.2 185.84 48.32C184.56 49.44 183.92 51.0667 183.92 53.2C183.92 54.6933 184.4 55.9467 185.36 56.96C186.373 57.92 187.6 58.72 189.04 59.36C190.533 59.9467 192.613 60.64 195.28 61.44C198.907 62.5067 201.867 63.5733 204.16 64.64C206.453 65.7067 208.427 67.3067 210.08 69.44C211.733 71.5733 212.56 74.3733 212.56 77.84C212.56 80.8267 211.787 83.6 210.24 86.16C208.693 88.72 206.427 90.7733 203.44 92.32C200.453 93.8133 196.907 94.56 192.8 94.56ZM241.95 94.72C237.683 94.72 233.843 93.7867 230.43 91.92C227.017 90 224.323 87.3067 222.35 83.84C220.43 80.3733 219.47 76.3733 219.47 71.84C219.47 67.3067 220.457 63.3067 222.43 59.84C224.457 56.3733 227.203 53.7067 230.67 51.84C234.137 49.92 238.003 48.96 242.27 48.96C246.537 48.96 250.403 49.92 253.87 51.84C257.337 53.7067 260.057 56.3733 262.03 59.84C264.057 63.3067 265.07 67.3067 265.07 71.84C265.07 76.3733 264.03 80.3733 261.95 83.84C259.923 87.3067 257.15 90 253.63 91.92C250.163 93.7867 246.27 94.72 241.95 94.72ZM241.95 84.96C243.977 84.96 245.87 84.48 247.63 83.52C249.443 82.5067 250.883 81.0133 251.95 79.04C253.017 77.0667 253.55 74.6667 253.55 71.84C253.55 67.6267 252.43 64.4 250.19 62.16C248.003 59.8667 245.31 58.72 242.11 58.72C238.91 58.72 236.217 59.8667 234.03 62.16C231.897 64.4 230.83 67.6267 230.83 71.84C230.83 76.0533 231.87 79.3067 233.95 81.6C236.083 83.84 238.75 84.96 241.95 84.96ZM328.326 49.04C333.766 49.04 338.139 50.72 341.446 54.08C344.806 57.3867 346.486 62.0267 346.486 68V94H335.286V69.52C335.286 66.0533 334.406 63.4133 332.646 61.6C330.886 59.7333 328.486 58.8 325.446 58.8C322.406 58.8 319.979 59.7333 318.166 61.6C316.406 63.4133 315.526 66.0533 315.526 69.52V94H304.326V69.52C304.326 66.0533 303.446 63.4133 301.686 61.6C299.926 59.7333 297.526 58.8 294.486 58.8C291.392 58.8 288.939 59.7333 287.126 61.6C285.366 63.4133 284.486 66.0533 284.486 69.52V94H273.286V49.68H284.486V55.04C285.926 53.1733 287.766 51.7067 290.006 50.64C292.299 49.5733 294.806 49.04 297.526 49.04C300.992 49.04 304.086 49.7867 306.806 51.28C309.526 52.72 311.632 54.8 313.126 57.52C314.566 54.96 316.646 52.9067 319.366 51.36C322.139 49.8133 325.126 49.04 328.326 49.04ZM354.234 71.68C354.234 67.2 355.114 63.2267 356.874 59.76C358.687 56.2933 361.114 53.6267 364.154 51.76C367.247 49.8933 370.687 48.96 374.474 48.96C377.78 48.96 380.66 49.6267 383.114 50.96C385.62 52.2933 387.62 53.9733 389.114 56V49.68H400.394V94H389.114V87.52C387.674 89.6 385.674 91.3333 383.114 92.72C380.607 94.0533 377.7 94.72 374.394 94.72C370.66 94.72 367.247 93.76 364.154 91.84C361.114 89.92 358.687 87.2267 356.874 83.76C355.114 80.24 354.234 76.2133 354.234 71.68ZM389.114 71.84C389.114 69.12 388.58 66.8 387.514 64.88C386.447 62.9067 385.007 61.4133 383.194 60.4C381.38 59.3333 379.434 58.8 377.354 58.8C375.274 58.8 373.354 59.3067 371.594 60.32C369.834 61.3333 368.394 62.8267 367.274 64.8C366.207 66.72 365.674 69.0133 365.674 71.68C365.674 74.3467 366.207 76.6933 367.274 78.72C368.394 80.6933 369.834 82.2133 371.594 83.28C373.407 84.3467 375.327 84.88 377.354 84.88C379.434 84.88 381.38 84.3733 383.194 83.36C385.007 82.2933 386.447 80.8 387.514 78.88C388.58 76.9067 389.114 74.56 389.114 71.84ZM441.595 85.12H459.995V94H430.395V38.16H441.595V85.12ZM464.234 71.68C464.234 67.2 465.114 63.2267 466.874 59.76C468.687 56.2933 471.114 53.6267 474.154 51.76C477.247 49.8933 480.687 48.96 484.474 48.96C487.78 48.96 490.66 49.6267 493.114 50.96C495.62 52.2933 497.62 53.9733 499.114 56V49.68H510.394V94H499.114V87.52C497.674 89.6 495.674 91.3333 493.114 92.72C490.607 94.0533 487.7 94.72 484.394 94.72C480.66 94.72 477.247 93.76 474.154 91.84C471.114 89.92 468.687 87.2267 466.874 83.76C465.114 80.24 464.234 76.2133 464.234 71.68ZM499.114 71.84C499.114 69.12 498.58 66.8 497.514 64.88C496.447 62.9067 495.007 61.4133 493.194 60.4C491.38 59.3333 489.434 58.8 487.354 58.8C485.274 58.8 483.354 59.3067 481.594 60.32C479.834 61.3333 478.394 62.8267 477.274 64.8C476.207 66.72 475.674 69.0133 475.674 71.68C475.674 74.3467 476.207 76.6933 477.274 78.72C478.394 80.6933 479.834 82.2133 481.594 83.28C483.407 84.3467 485.327 84.88 487.354 84.88C489.434 84.88 491.38 84.3733 493.194 83.36C495.007 82.2933 496.447 80.8 497.514 78.88C498.58 76.9067 499.114 74.56 499.114 71.84ZM532.533 56.16C533.973 54.0267 535.946 52.2933 538.453 50.96C541.013 49.6267 543.919 48.96 547.173 48.96C550.959 48.96 554.373 49.8933 557.413 51.76C560.506 53.6267 562.933 56.2933 564.693 59.76C566.506 63.1733 567.413 67.1467 567.413 71.68C567.413 76.2133 566.506 80.24 564.693 83.76C562.933 87.2267 560.506 89.92 557.413 91.84C554.373 93.76 550.959 94.72 547.173 94.72C543.866 94.72 540.959 94.08 538.453 92.8C535.999 91.4667 534.026 89.76 532.533 87.68V94H521.333V34.8H532.533V56.16ZM555.973 71.68C555.973 69.0133 555.413 66.72 554.293 64.8C553.226 62.8267 551.786 61.3333 549.973 60.32C548.213 59.3067 546.293 58.8 544.213 58.8C542.186 58.8 540.266 59.3333 538.453 60.4C536.693 61.4133 535.253 62.9067 534.133 64.88C533.066 66.8533 532.533 69.1733 532.533 71.84C532.533 74.5067 533.066 76.8267 534.133 78.8C535.253 80.7733 536.693 82.2933 538.453 83.36C540.266 84.3733 542.186 84.88 544.213 84.88C546.293 84.88 548.213 84.3467 549.973 83.28C551.786 82.2133 553.226 80.6933 554.293 78.72C555.413 76.7467 555.973 74.4 555.973 71.68Z" fill="#0D0D0D"/>
<path d="M47.5 94.2858C73.7335 94.2858 95 73.1792 95 47.1429C95 44.1922 94.7268 41.3047 94.2042 38.5041C91.3824 37.9855 88.4731 37.7144 85.5 37.7144C59.2665 37.7144 38 58.8209 38 84.8572C38 87.808 38.2732 90.6954 38.7957 93.496C41.6175 94.0147 44.5269 94.2858 47.5 94.2858Z" fill="#2900DD"/>
<path fill-rule="evenodd" clip-rule="evenodd" d="M38.7957 93.496C16.7192 89.4382 0 70.2284 0 47.1429C0 21.1066 21.2665 0 47.5 0C70.7604 0 90.1158 16.5935 94.2043 38.504C91.3825 37.9854 88.4731 37.7143 85.5 37.7143C59.2665 37.7143 38 58.8209 38 84.8571C38 87.8079 38.2732 90.6954 38.7957 93.496Z" fill="#4318FF"/>
<path fill-rule="evenodd" clip-rule="evenodd" d="M47.4992 94.2856C73.7327 94.2856 94.9992 73.179 94.9992 47.1427C94.9992 44.1919 94.726 41.3045 94.2035 38.5039C116.28 42.5616 132.999 61.7715 132.999 84.857C132.999 110.893 111.733 132 85.4992 132C62.2388 132 42.8834 115.406 38.7949 93.4958C41.6167 94.0145 44.5261 94.2856 47.4992 94.2856Z" fill="#6F4EFF"/>
</svg>
