<svg xmlns="http://www.w3.org/2000/svg" version="1.1" xmlns:xlink="http://www.w3.org/1999/xlink" viewBox="0 0 16.304968834628955 3.514962947491737"><g transform="matrix(1,0,0,1,4.3460750944613284,1.2024814737458687)"><g clip-path="url(#SvgjsClipPath1001)"><g clip-path="url(#SvgjsClipPath1000db9aa51a-86a3-4e8b-98fc-dbd02d0c9408)"><path d=" M -2.6179437624509188 0.5627578390135604 L -2.0764188021249494 0.021346283534750876 L -1.5350072466461397 0.5628712438607204 L -2.076532206972109 1.1042827993395297 Z" fill="#bab9b4" transform="matrix(1,0,0,1,0,0)" fill-rule="nonzero"></path></g><g clip-path="url(#SvgjsClipPath1000db9aa51a-86a3-4e8b-98fc-dbd02d0c9408)"><path d=" M -2.3566683111118714 -0.24583449096970678 L -3.165277894226915 0.5627750921453367 L -2.371839222614968 1.3558344909697062 L -2.735182553114129 1.719177821468868 L -2.7423887360781 1.7123509112924744 L -3.528621224726076 0.9261184226444978 L -3.5506190464055662 0.9037413281774307 C -3.731911438867569 0.7229546327655307 -3.7913308422546974 0.5697284265842559 -3.72887725656695 0.4440627096336067 C -3.696094150975312 0.38043837000764347 -3.6528922372210526 0.3227503546087811 -3.601062327153363 0.2733899552237721 L -2.7200116416110327 -0.609177821468868 Z" fill="#404040" transform="matrix(1,0,0,1,0,0)" fill-rule="evenodd"></path></g><g clip-path="url(#SvgjsClipPath1000db9aa51a-86a3-4e8b-98fc-dbd02d0c9408)"><path d=" M -1.7961031310724558 -0.24583449096970678 L -0.9874935479574121 0.5627750921453367 L -1.7805529467817816 1.3558344909697062 L -1.4172096162826207 1.719177821468868 L -1.4100034333186495 1.7123509112924744 L -0.6241502174582512 0.9261184226444978 L -0.6021523957787611 0.9037413281774307 C -0.4208600033167582 0.7229546327655307 -0.36144059992962907 0.5697284265842559 -0.4238941856173768 0.4440627096336067 C -0.45621870090075634 0.3805499568458328 -0.4989027608852403 0.3228687947046386 -0.5501920238806544 0.27338995522377096 L -1.4327598005732942 -0.609177821468868 Z" fill="#4e888f" transform="matrix(1,0,0,1,0,0)" fill-rule="evenodd"></path></g></g><g><path d=" M 0.8835000000000001 0.7484999999999999 L 0.327 0.7484999999999999 Q 0.3315 0.8174999999999999 0.36525 0.8512499999999998 Q 0.399 0.8849999999999999 0.4515 0.8849999999999999 Q 0.525 0.8849999999999999 0.5565 0.819 L 0.87 0.819 Q 0.8505 0.9059999999999999 0.79425 0.9742499999999998 Q 0.738 1.0425 0.6525 1.0815 Q 0.5670000000000001 1.1204999999999998 0.4635 1.1204999999999998 Q 0.339 1.1204999999999998 0.24225 1.0679999999999998 Q 0.1455 1.0154999999999998 0.09075 0.9179999999999999 Q 0.036000000000000004 0.8204999999999999 0.036000000000000004 0.6884999999999999 Q 0.036000000000000004 0.5564999999999999 0.09 0.4597499999999999 Q 0.14400000000000002 0.3629999999999999 0.24075 0.3104999999999999 Q 0.3375 0.2579999999999999 0.4635 0.2579999999999999 Q 0.588 0.2579999999999999 0.684 0.30899999999999983 Q 0.78 0.3599999999999999 0.834 0.4552499999999998 Q 0.888 0.5504999999999999 0.888 0.6794999999999999 Q 0.888 0.7139999999999999 0.8835000000000001 0.7484999999999999 M 0.588 0.6059999999999999 Q 0.588 0.5519999999999998 0.552 0.5212499999999999 Q 0.516 0.4904999999999998 0.462 0.4904999999999998 Q 0.40800000000000003 0.4904999999999998 0.3735 0.5197499999999998 Q 0.339 0.5489999999999998 0.3285 0.6059999999999999 L 0.588 0.6059999999999999 M 2.354291748046875 0.3569999999999999 Q 2.445041748046875 0.45299999999999985 2.445041748046875 0.6194999999999999 L 2.445041748046875 1.1099999999999999 L 2.151041748046875 1.1099999999999999 L 2.151041748046875 0.6584999999999999 Q 2.151041748046875 0.5909999999999999 2.1135417480468752 0.5534999999999999 Q 2.076041748046875 0.5159999999999999 2.011541748046875 0.5159999999999999 Q 1.9470417480468751 0.5159999999999999 1.909541748046875 0.5534999999999999 Q 1.872041748046875 0.5909999999999999 1.872041748046875 0.6584999999999999 L 1.872041748046875 1.1099999999999999 L 1.578041748046875 1.1099999999999999 L 1.578041748046875 0.6584999999999999 Q 1.578041748046875 0.5909999999999999 1.5412917480468749 0.5534999999999999 Q 1.504541748046875 0.5159999999999999 1.440041748046875 0.5159999999999999 Q 1.374041748046875 0.5159999999999999 1.336541748046875 0.5534999999999999 Q 1.299041748046875 0.5909999999999999 1.299041748046875 0.6584999999999999 L 1.299041748046875 1.1099999999999999 L 1.005041748046875 1.1099999999999999 L 1.005041748046875 0.26849999999999985 L 1.299041748046875 0.26849999999999985 L 1.299041748046875 0.37949999999999984 Q 1.338041748046875 0.3254999999999999 1.400291748046875 0.2932499999999999 Q 1.462541748046875 0.2609999999999999 1.543541748046875 0.2609999999999999 Q 1.636541748046875 0.2609999999999999 1.709291748046875 0.3014999999999999 Q 1.782041748046875 0.34199999999999986 1.824041748046875 0.41549999999999987 Q 1.869041748046875 0.3464999999999998 1.942541748046875 0.30374999999999985 Q 2.016041748046875 0.2609999999999999 2.104541748046875 0.2609999999999999 Q 2.263541748046875 0.2609999999999999 2.354291748046875 0.3569999999999999 M 2.994066650390625 0.29249999999999987 Q 3.0570666503906248 0.2579999999999999 3.142566650390625 0.2579999999999999 Q 3.2430666503906247 0.2579999999999999 3.3248166503906247 0.3104999999999999 Q 3.4065666503906247 0.3629999999999999 3.4538166503906247 0.4604999999999999 Q 3.5010666503906247 0.5579999999999998 3.5010666503906247 0.6884999999999999 Q 3.5010666503906247 0.819 3.4538166503906247 0.9172499999999999 Q 3.4065666503906247 1.0154999999999998 3.3248166503906247 1.0679999999999998 Q 3.2430666503906247 1.1204999999999998 3.142566650390625 1.1204999999999998 Q 3.0570666503906248 1.1204999999999998 2.9948166503906246 1.0859999999999999 Q 2.932566650390625 1.0514999999999999 2.896566650390625 0.9929999999999999 L 2.896566650390625 1.512 L 2.602566650390625 1.512 L 2.602566650390625 0.26849999999999985 L 2.896566650390625 0.26849999999999985 L 2.896566650390625 0.38549999999999984 Q 2.931066650390625 0.32699999999999985 2.994066650390625 0.29249999999999987 M 3.158316650390625 0.5602499999999999 Q 3.1140666503906247 0.5144999999999998 3.049566650390625 0.5144999999999998 Q 2.9850666503906247 0.5144999999999998 2.940816650390625 0.5609999999999998 Q 2.896566650390625 0.6074999999999998 2.896566650390625 0.6884999999999999 Q 2.896566650390625 0.7709999999999999 2.940816650390625 0.8174999999999999 Q 2.9850666503906247 0.8639999999999999 3.049566650390625 0.8639999999999999 Q 3.1140666503906247 0.8639999999999999 3.158316650390625 0.8167499999999999 Q 3.202566650390625 0.7694999999999999 3.202566650390625 0.6884999999999999 Q 3.202566650390625 0.6059999999999999 3.158316650390625 0.5602499999999999 M 3.7853056640625 1.0679999999999998 Q 3.6855556640624996 1.0154999999999998 3.6285556640624996 0.9179999999999999 Q 3.5715556640624997 0.8204999999999999 3.5715556640624997 0.6884999999999999 Q 3.5715556640624997 0.5579999999999998 3.6293056640624997 0.4604999999999999 Q 3.6870556640624996 0.3629999999999999 3.7868056640625 0.3104999999999999 Q 3.8865556640624996 0.2579999999999999 4.0125556640625 0.2579999999999999 Q 4.138555664062499 0.2579999999999999 4.2383056640625 0.3104999999999999 Q 4.3380556640625 0.3629999999999999 4.395805664062499 0.4604999999999999 Q 4.4535556640625 0.5579999999999998 4.4535556640625 0.6884999999999999 Q 4.4535556640625 0.819 4.395805664062499 0.9172499999999999 Q 4.3380556640625 1.0154999999999998 4.2375556640625 1.0679999999999998 Q 4.137055664062499 1.1204999999999998 4.0110556640625 1.1204999999999998 Q 3.8850556640624996 1.1204999999999998 3.7853056640625 1.0679999999999998 M 4.113805664062499 0.8197499999999999 Q 4.1550556640625 0.7739999999999998 4.1550556640625 0.6884999999999999 Q 4.1550556640625 0.6029999999999999 4.113805664062499 0.5579999999999998 Q 4.0725556640625 0.5129999999999999 4.0125556640625 0.5129999999999999 Q 3.9525556640624995 0.5129999999999999 3.9120556640624997 0.5579999999999998 Q 3.8715556640624995 0.6029999999999999 3.8715556640624995 0.6884999999999999 Q 3.8715556640624995 0.7754999999999999 3.9105556640624997 0.8204999999999999 Q 3.9495556640625 0.8654999999999999 4.0110556640625 0.8654999999999999 Q 4.0725556640625 0.8654999999999999 4.113805664062499 0.8197499999999999 M 5.81403515625 0.26849999999999985 L 5.599535156249999 1.1099999999999999 L 5.26953515625 1.1099999999999999 L 5.15253515625 0.5999999999999999 L 5.03103515625 1.1099999999999999 L 4.70253515625 1.1099999999999999 L 4.48953515625 0.26849999999999985 L 4.782035156249999 0.26849999999999985 L 4.876535156249999 0.8264999999999998 L 5.0010351562499995 0.26849999999999985 L 5.31603515625 0.26849999999999985 L 5.4450351562499995 0.8279999999999998 L 5.538035156249999 0.26849999999999985 L 5.81403515625 0.26849999999999985 M 6.694549804687499 0.7484999999999999 L 6.138049804687499 0.7484999999999999 Q 6.1425498046875 0.8174999999999999 6.176299804687499 0.8512499999999998 Q 6.2100498046874995 0.8849999999999999 6.2625498046875 0.8849999999999999 Q 6.3360498046875 0.8849999999999999 6.367549804687499 0.819 L 6.6810498046874995 0.819 Q 6.6615498046875 0.9059999999999999 6.605299804687499 0.9742499999999998 Q 6.549049804687499 1.0425 6.463549804687499 1.0815 Q 6.3780498046875 1.1204999999999998 6.274549804687499 1.1204999999999998 Q 6.1500498046875 1.1204999999999998 6.0532998046875 1.0679999999999998 Q 5.9565498046875 1.0154999999999998 5.901799804687499 0.9179999999999999 Q 5.847049804687499 0.8204999999999999 5.847049804687499 0.6884999999999999 Q 5.847049804687499 0.5564999999999999 5.901049804687499 0.4597499999999999 Q 5.9550498046875 0.3629999999999999 6.0517998046875 0.3104999999999999 Q 6.1485498046875 0.2579999999999999 6.274549804687499 0.2579999999999999 Q 6.3990498046874995 0.2579999999999999 6.4950498046875 0.30899999999999983 Q 6.5910498046875 0.3599999999999999 6.645049804687499 0.4552499999999998 Q 6.699049804687499 0.5504999999999999 6.699049804687499 0.6794999999999999 Q 6.699049804687499 0.7139999999999999 6.694549804687499 0.7484999999999999 M 6.3990498046874995 0.6059999999999999 Q 6.3990498046874995 0.5519999999999998 6.363049804687499 0.5212499999999999 Q 6.3270498046874994 0.4904999999999998 6.273049804687499 0.4904999999999998 Q 6.2190498046875 0.4904999999999998 6.184549804687499 0.5197499999999998 Q 6.1500498046875 0.5489999999999998 6.1395498046874994 0.6059999999999999 L 6.3990498046874995 0.6059999999999999 M 7.2300915527343745 0.3029999999999998 Q 7.3005915527343745 0.2609999999999999 7.381591552734374 0.2609999999999999 L 7.381591552734374 0.5744999999999999 L 7.2990915527343745 0.5744999999999999 Q 7.203091552734374 0.5744999999999999 7.156591552734374 0.6119999999999999 Q 7.110091552734374 0.6494999999999999 7.110091552734374 0.7424999999999999 L 7.110091552734374 1.1099999999999999 L 6.816091552734374 1.1099999999999999 L 6.816091552734374 0.26849999999999985 L 7.110091552734374 0.26849999999999985 L 7.110091552734374 0.4169999999999998 Q 7.1595915527343745 0.34499999999999986 7.2300915527343745 0.3029999999999998 M 7.766342285156249 0.4604999999999999 Q 7.813592285156249 0.3629999999999999 7.896092285156249 0.3104999999999999 Q 7.978592285156249 0.2579999999999999 8.07909228515625 0.2579999999999999 Q 8.16009228515625 0.2579999999999999 8.223842285156248 0.29174999999999984 Q 8.287592285156249 0.3254999999999999 8.323592285156248 0.3839999999999999 L 8.323592285156248 -2.220446049250313e-16 L 8.619092285156249 -2.220446049250313e-16 L 8.619092285156249 1.1099999999999999 L 8.323592285156248 1.1099999999999999 L 8.323592285156248 0.9929999999999999 Q 8.289092285156249 1.0514999999999999 8.226092285156248 1.0859999999999999 Q 8.16309228515625 1.1204999999999998 8.07759228515625 1.1204999999999998 Q 7.977092285156249 1.1204999999999998 7.895342285156249 1.0679999999999998 Q 7.813592285156249 1.0154999999999998 7.766342285156249 0.9172499999999999 Q 7.719092285156249 0.819 7.719092285156249 0.6884999999999999 Q 7.719092285156249 0.5579999999999998 7.766342285156249 0.4604999999999999 M 8.280842285156249 0.5609999999999998 Q 8.236592285156249 0.5144999999999998 8.17209228515625 0.5144999999999998 Q 8.10609228515625 0.5144999999999998 8.06259228515625 0.5602499999999999 Q 8.01909228515625 0.6059999999999999 8.01909228515625 0.6884999999999999 Q 8.01909228515625 0.7694999999999999 8.06259228515625 0.8167499999999999 Q 8.10609228515625 0.8639999999999999 8.17209228515625 0.8639999999999999 Q 8.236592285156249 0.8639999999999999 8.280842285156249 0.8174999999999999 Q 8.325092285156249 0.7709999999999999 8.325092285156249 0.6884999999999999 Q 8.325092285156249 0.6074999999999998 8.280842285156249 0.5609999999999998 M 8.783331298828124 0.4604999999999999 Q 8.830581298828124 0.3629999999999999 8.912331298828123 0.3104999999999999 Q 8.994081298828124 0.2579999999999999 9.094581298828125 0.2579999999999999 Q 9.181581298828124 0.2579999999999999 9.244581298828123 0.29249999999999987 Q 9.307581298828124 0.32699999999999985 9.342081298828123 0.38549999999999984 L 9.342081298828123 0.26849999999999985 L 9.636081298828124 0.26849999999999985 L 9.636081298828124 1.1099999999999999 L 9.342081298828123 1.1099999999999999 L 9.342081298828123 0.9929999999999999 Q 9.307581298828124 1.0514999999999999 9.243831298828123 1.0859999999999999 Q 9.180081298828124 1.1204999999999998 9.094581298828125 1.1204999999999998 Q 8.994081298828124 1.1204999999999998 8.912331298828123 1.0679999999999998 Q 8.830581298828124 1.0154999999999998 8.783331298828124 0.9172499999999999 Q 8.736081298828124 0.819 8.736081298828124 0.6884999999999999 Q 8.736081298828124 0.5579999999999998 8.783331298828124 0.4604999999999999 M 9.297831298828124 0.5609999999999998 Q 9.253581298828124 0.5144999999999998 9.189081298828125 0.5144999999999998 Q 9.123081298828124 0.5144999999999998 9.079581298828124 0.5602499999999999 Q 9.036081298828124 0.6059999999999999 9.036081298828124 0.6884999999999999 Q 9.036081298828124 0.7694999999999999 9.079581298828124 0.8167499999999999 Q 9.123081298828124 0.8639999999999999 9.189081298828125 0.8639999999999999 Q 9.253581298828124 0.8639999999999999 9.297831298828124 0.8174999999999999 Q 9.342081298828123 0.7709999999999999 9.342081298828123 0.6884999999999999 Q 9.342081298828123 0.6074999999999998 9.297831298828124 0.5609999999999998 M 10.2975703125 0.8594999999999999 L 10.2975703125 1.1099999999999999 L 10.170070312499998 1.1099999999999999 Q 9.847570312499998 1.1099999999999999 9.847570312499998 0.7904999999999999 L 9.847570312499998 0.5129999999999999 L 9.744070312499998 0.5129999999999999 L 9.744070312499998 0.26849999999999985 L 9.847570312499998 0.26849999999999985 L 9.847570312499998 0.06449999999999978 L 10.143070312499999 0.06449999999999978 L 10.143070312499999 0.26849999999999985 L 10.2960703125 0.26849999999999985 L 10.2960703125 0.5129999999999999 L 10.143070312499999 0.5129999999999999 L 10.143070312499999 0.7949999999999999 Q 10.143070312499999 0.8294999999999999 10.1588203125 0.8444999999999998 Q 10.174570312499998 0.8594999999999999 10.212070312499998 0.8594999999999999 L 10.2975703125 0.8594999999999999 M 10.428851074218748 0.4604999999999999 Q 10.476101074218748 0.3629999999999999 10.557851074218748 0.3104999999999999 Q 10.63960107421875 0.2579999999999999 10.74010107421875 0.2579999999999999 Q 10.82710107421875 0.2579999999999999 10.890101074218748 0.29249999999999987 Q 10.953101074218749 0.32699999999999985 10.987601074218748 0.38549999999999984 L 10.987601074218748 0.26849999999999985 L 11.281601074218749 0.26849999999999985 L 11.281601074218749 1.1099999999999999 L 10.987601074218748 1.1099999999999999 L 10.987601074218748 0.9929999999999999 Q 10.953101074218749 1.0514999999999999 10.889351074218748 1.0859999999999999 Q 10.82560107421875 1.1204999999999998 10.74010107421875 1.1204999999999998 Q 10.63960107421875 1.1204999999999998 10.557851074218748 1.0679999999999998 Q 10.476101074218748 1.0154999999999998 10.428851074218748 0.9172499999999999 Q 10.381601074218748 0.819 10.381601074218748 0.6884999999999999 Q 10.381601074218748 0.5579999999999998 10.428851074218748 0.4604999999999999 M 10.943351074218748 0.5609999999999998 Q 10.899101074218748 0.5144999999999998 10.83460107421875 0.5144999999999998 Q 10.768601074218749 0.5144999999999998 10.725101074218749 0.5602499999999999 Q 10.681601074218749 0.6059999999999999 10.681601074218749 0.6884999999999999 Q 10.681601074218749 0.7694999999999999 10.725101074218749 0.8167499999999999 Q 10.768601074218749 0.8639999999999999 10.83460107421875 0.8639999999999999 Q 10.899101074218748 0.8639999999999999 10.943351074218748 0.8174999999999999 Q 10.987601074218748 0.7709999999999999 10.987601074218748 0.6884999999999999 Q 10.987601074218748 0.6074999999999998 10.943351074218748 0.5609999999999998" fill="#404040" fill-rule="nonzero"></path></g><g></g></g><defs><clipPath id="SvgjsClipPath1001"><path d=" M -3.752771442184327 -0.6091778214688681 h 3.352771442184327 v 2.328355642937736 h -3.352771442184327 Z"></path></clipPath><clipPath id="SvgjsClipPath1000db9aa51a-86a3-4e8b-98fc-dbd02d0c9408"><path d=" M -3.752771442184327 -0.609177821468868 L -0.3999999999999999 -0.609177821468868 L -0.3999999999999999 1.719177821468868 L -3.752771442184327 1.719177821468868 Z"></path></clipPath></defs></svg>